<svg xmlns="http://www.w3.org/2000/svg" width="13.42" height="12.836" viewBox="0 0 13.42 12.836">
  <path id="패스_1051" data-name="패스 1051" d="M7.46.75a.75.75,0,0,1,.673.418L9.8,4.546l3.728.542a.75.75,0,0,1,.416,1.279L11.246,9l.637,3.713A.75.75,0,0,1,10.8,13.5L7.46,11.747,4.126,13.5a.75.75,0,0,1-1.088-.791L3.674,9,.977,6.367a.75.75,0,0,1,.416-1.279l3.728-.542L6.788,1.168A.75.75,0,0,1,7.46.75Zm4.348,5.6-2.614-.38a.75.75,0,0,1-.565-.41L7.46,3.194,6.291,5.563a.75.75,0,0,1-.565.41l-2.614.38L5,8.2a.75.75,0,0,1,.216.664l-.446,2.6,2.338-1.229a.75.75,0,0,1,.7,0l2.339,1.229L9.7,8.861A.75.75,0,0,1,9.917,8.2Z" transform="translate(-0.75 -0.75)" fill="#fff"/>
</svg>
